<mxfile host="app.diagrams.net" modified="2021-03-03T05:18:36.013Z" agent="5.0 (Macintosh; Intel Mac OS X 10_14_6) AppleWebKit/537.36 (KHTML, like Gecko) Chrome/88.0.4324.192 Safari/537.36" etag="I_62v01tjRC_8ArSqvQn" version="14.4.3" type="github">
  <diagram id="Jb9bsLLqoKSC_LjnbPip" name="第 1 页">
    <mxGraphModel dx="565" dy="368" grid="1" gridSize="10" guides="1" tooltips="1" connect="1" arrows="1" fold="1" page="1" pageScale="1" pageWidth="3300" pageHeight="2339" math="0" shadow="0">
      <root>
        <mxCell id="0" />
        <mxCell id="1" parent="0" />
        <mxCell id="PsLldGhhW7zFPA9WdBCV-3" value="AMS" style="shape=umlLifeline;perimeter=lifelinePerimeter;whiteSpace=wrap;html=1;container=1;collapsible=0;recursiveResize=0;outlineConnect=0;rounded=0;sketch=0;" parent="1" vertex="1">
          <mxGeometry x="190" y="70" width="120" height="400" as="geometry" />
        </mxCell>
        <mxCell id="PsLldGhhW7zFPA9WdBCV-8" value="" style="html=1;points=[];perimeter=orthogonalPerimeter;fontSize=19;" parent="PsLldGhhW7zFPA9WdBCV-3" vertex="1">
          <mxGeometry x="60" y="110" width="10" height="50" as="geometry" />
        </mxCell>
        <mxCell id="PsLldGhhW7zFPA9WdBCV-17" value="" style="html=1;points=[];perimeter=orthogonalPerimeter;fontSize=12;" parent="PsLldGhhW7zFPA9WdBCV-3" vertex="1">
          <mxGeometry x="60" y="230" width="10" height="60" as="geometry" />
        </mxCell>
        <mxCell id="PsLldGhhW7zFPA9WdBCV-4" value="根Activity的启动概览" style="text;html=1;align=center;verticalAlign=middle;resizable=0;points=[];autosize=1;fontSize=19;fontStyle=1" parent="1" vertex="1">
          <mxGeometry x="220" y="505" width="200" height="30" as="geometry" />
        </mxCell>
        <mxCell id="PsLldGhhW7zFPA9WdBCV-5" value="Zygote" style="shape=umlLifeline;perimeter=lifelinePerimeter;whiteSpace=wrap;html=1;container=1;collapsible=0;recursiveResize=0;outlineConnect=0;rounded=0;sketch=0;" parent="1" vertex="1">
          <mxGeometry x="340" y="70" width="120" height="400" as="geometry" />
        </mxCell>
        <mxCell id="PsLldGhhW7zFPA9WdBCV-13" value="" style="html=1;points=[];perimeter=orthogonalPerimeter;fontSize=19;" parent="PsLldGhhW7zFPA9WdBCV-5" vertex="1">
          <mxGeometry x="60" y="150" width="10" height="50" as="geometry" />
        </mxCell>
        <mxCell id="PsLldGhhW7zFPA9WdBCV-6" value="Launcher" style="shape=umlLifeline;perimeter=lifelinePerimeter;whiteSpace=wrap;html=1;container=1;collapsible=0;recursiveResize=0;outlineConnect=0;rounded=0;sketch=0;" parent="1" vertex="1">
          <mxGeometry x="40" y="70" width="120" height="400" as="geometry" />
        </mxCell>
        <mxCell id="PsLldGhhW7zFPA9WdBCV-7" value="目标App进程" style="shape=umlLifeline;perimeter=lifelinePerimeter;whiteSpace=wrap;html=1;container=1;collapsible=0;recursiveResize=0;outlineConnect=0;rounded=0;sketch=0;" parent="1" vertex="1">
          <mxGeometry x="490" y="70" width="120" height="400" as="geometry" />
        </mxCell>
        <mxCell id="PsLldGhhW7zFPA9WdBCV-15" value="" style="html=1;points=[];perimeter=orthogonalPerimeter;fontSize=19;" parent="PsLldGhhW7zFPA9WdBCV-7" vertex="1">
          <mxGeometry x="60" y="190" width="10" height="50" as="geometry" />
        </mxCell>
        <mxCell id="PsLldGhhW7zFPA9WdBCV-9" value="&lt;font size=&quot;1&quot;&gt;请求启动根Activity&lt;br&gt;&lt;/font&gt;" style="html=1;verticalAlign=bottom;startArrow=oval;endArrow=block;startSize=8;fontSize=19;exitX=0.492;exitY=0.275;exitDx=0;exitDy=0;exitPerimeter=0;" parent="1" source="PsLldGhhW7zFPA9WdBCV-6" target="PsLldGhhW7zFPA9WdBCV-8" edge="1">
          <mxGeometry relative="1" as="geometry">
            <mxPoint x="190" y="180" as="sourcePoint" />
          </mxGeometry>
        </mxCell>
        <mxCell id="PsLldGhhW7zFPA9WdBCV-14" value="&lt;font style=&quot;font-size: 12px&quot;&gt;请求创建目标进程&lt;/font&gt;" style="html=1;verticalAlign=bottom;startArrow=oval;endArrow=block;startSize=8;fontSize=19;exitX=1.3;exitY=0.82;exitDx=0;exitDy=0;exitPerimeter=0;" parent="1" source="PsLldGhhW7zFPA9WdBCV-8" target="PsLldGhhW7zFPA9WdBCV-13" edge="1">
          <mxGeometry relative="1" as="geometry">
            <mxPoint x="340" y="220" as="sourcePoint" />
          </mxGeometry>
        </mxCell>
        <mxCell id="PsLldGhhW7zFPA9WdBCV-16" value="创建并启动进程" style="html=1;verticalAlign=bottom;startArrow=oval;endArrow=block;startSize=8;fontSize=12;exitX=1;exitY=0.82;exitDx=0;exitDy=0;exitPerimeter=0;" parent="1" source="PsLldGhhW7zFPA9WdBCV-13" target="PsLldGhhW7zFPA9WdBCV-15" edge="1">
          <mxGeometry relative="1" as="geometry">
            <mxPoint x="490" y="260" as="sourcePoint" />
          </mxGeometry>
        </mxCell>
        <mxCell id="PsLldGhhW7zFPA9WdBCV-18" value="通知AMS，进程创建并准备就绪&lt;br&gt;" style="html=1;verticalAlign=bottom;endArrow=block;entryX=1;entryY=0;fontSize=12;" parent="1" source="PsLldGhhW7zFPA9WdBCV-7" target="PsLldGhhW7zFPA9WdBCV-17" edge="1">
          <mxGeometry relative="1" as="geometry">
            <mxPoint x="320" y="300" as="sourcePoint" />
          </mxGeometry>
        </mxCell>
        <mxCell id="PsLldGhhW7zFPA9WdBCV-19" value="启动根Activity" style="html=1;verticalAlign=bottom;endArrow=open;dashed=1;endSize=8;exitX=1;exitY=0.95;fontSize=12;" parent="1" source="PsLldGhhW7zFPA9WdBCV-17" target="PsLldGhhW7zFPA9WdBCV-7" edge="1">
          <mxGeometry relative="1" as="geometry">
            <mxPoint x="320" y="357" as="targetPoint" />
          </mxGeometry>
        </mxCell>
        <mxCell id="jeZK_QSbLYXmpiHGlzoK-1" value="Activity" style="shape=umlLifeline;perimeter=lifelinePerimeter;whiteSpace=wrap;html=1;container=1;collapsible=0;recursiveResize=0;outlineConnect=0;rounded=0;sketch=0;" vertex="1" parent="1">
          <mxGeometry x="840" y="70" width="120" height="400" as="geometry" />
        </mxCell>
        <mxCell id="jeZK_QSbLYXmpiHGlzoK-2" value="&lt;span style=&quot;color: rgb(51 , 51 , 51) ; font-family: , , &amp;#34;segoe ui&amp;#34; , &amp;#34;roboto&amp;#34; , &amp;#34;ubuntu&amp;#34; , &amp;#34;cantarell&amp;#34; , &amp;#34;noto sans&amp;#34; , sans-serif , , &amp;#34;helvetica neue&amp;#34; , &amp;#34;pingfang sc&amp;#34; , &amp;#34;hiragino sans gb&amp;#34; , &amp;#34;microsoft yahei&amp;#34; , &amp;#34;arial&amp;#34; ; font-size: 15px ; background-color: rgb(255 , 255 , 255)&quot;&gt;Instrumentation&lt;/span&gt;" style="shape=umlLifeline;perimeter=lifelinePerimeter;whiteSpace=wrap;html=1;container=1;collapsible=0;recursiveResize=0;outlineConnect=0;rounded=0;sketch=0;" vertex="1" parent="1">
          <mxGeometry x="1020" y="70" width="120" height="400" as="geometry" />
        </mxCell>
        <mxCell id="jeZK_QSbLYXmpiHGlzoK-5" value="" style="html=1;points=[];perimeter=orthogonalPerimeter;" vertex="1" parent="1">
          <mxGeometry x="900" y="140" width="10" height="44" as="geometry" />
        </mxCell>
        <mxCell id="jeZK_QSbLYXmpiHGlzoK-6" value="" style="html=1;points=[];perimeter=orthogonalPerimeter;" vertex="1" parent="1">
          <mxGeometry x="900" y="200" width="10" height="40" as="geometry" />
        </mxCell>
        <mxCell id="jeZK_QSbLYXmpiHGlzoK-7" value="" style="edgeStyle=orthogonalEdgeStyle;html=1;align=left;spacingLeft=2;endArrow=block;rounded=0;entryX=1;entryY=0;" edge="1" target="jeZK_QSbLYXmpiHGlzoK-6" parent="1">
          <mxGeometry relative="1" as="geometry">
            <mxPoint x="910" y="180" as="sourcePoint" />
            <Array as="points">
              <mxPoint x="930" y="180" />
            </Array>
          </mxGeometry>
        </mxCell>
        <mxCell id="jeZK_QSbLYXmpiHGlzoK-8" value="&lt;span style=&quot;color: rgb(51 , 51 , 51) ; font-family: , , &amp;#34;segoe ui&amp;#34; , &amp;#34;roboto&amp;#34; , &amp;#34;ubuntu&amp;#34; , &amp;#34;cantarell&amp;#34; , &amp;#34;noto sans&amp;#34; , sans-serif , , &amp;#34;helvetica neue&amp;#34; , &amp;#34;pingfang sc&amp;#34; , &amp;#34;hiragino sans gb&amp;#34; , &amp;#34;microsoft yahei&amp;#34; , &amp;#34;arial&amp;#34; ; font-size: 15px ; background-color: rgb(255 , 255 , 255)&quot;&gt;startActivityForResult&lt;/span&gt;" style="text;html=1;align=center;verticalAlign=middle;resizable=0;points=[];autosize=1;" vertex="1" parent="1">
          <mxGeometry x="910" y="210" width="160" height="20" as="geometry" />
        </mxCell>
        <mxCell id="jeZK_QSbLYXmpiHGlzoK-9" value="&lt;span style=&quot;color: rgb(51 , 51 , 51) ; font-family: , , &amp;#34;segoe ui&amp;#34; , &amp;#34;roboto&amp;#34; , &amp;#34;ubuntu&amp;#34; , &amp;#34;cantarell&amp;#34; , &amp;#34;noto sans&amp;#34; , sans-serif , , &amp;#34;helvetica neue&amp;#34; , &amp;#34;pingfang sc&amp;#34; , &amp;#34;hiragino sans gb&amp;#34; , &amp;#34;microsoft yahei&amp;#34; , &amp;#34;arial&amp;#34; ; font-size: 15px ; background-color: rgb(255 , 255 , 255)&quot;&gt;startActivity&lt;/span&gt;" style="text;html=1;align=center;verticalAlign=middle;resizable=0;points=[];autosize=1;" vertex="1" parent="1">
          <mxGeometry x="920" y="150" width="90" height="20" as="geometry" />
        </mxCell>
        <mxCell id="jeZK_QSbLYXmpiHGlzoK-10" value="" style="html=1;points=[];perimeter=orthogonalPerimeter;" vertex="1" parent="1">
          <mxGeometry x="1080" y="230" width="10" height="45" as="geometry" />
        </mxCell>
        <mxCell id="jeZK_QSbLYXmpiHGlzoK-11" value="" style="endArrow=block;endFill=1;html=1;edgeStyle=orthogonalEdgeStyle;align=left;verticalAlign=top;exitX=1;exitY=0.875;exitDx=0;exitDy=0;exitPerimeter=0;" edge="1" parent="1" source="jeZK_QSbLYXmpiHGlzoK-6">
          <mxGeometry x="-1" relative="1" as="geometry">
            <mxPoint x="920" y="235" as="sourcePoint" />
            <mxPoint x="1080" y="235" as="targetPoint" />
          </mxGeometry>
        </mxCell>
        <mxCell id="jeZK_QSbLYXmpiHGlzoK-13" value="&lt;span style=&quot;color: rgb(51 , 51 , 51) ; font-family: , , &amp;#34;segoe ui&amp;#34; , &amp;#34;roboto&amp;#34; , &amp;#34;ubuntu&amp;#34; , &amp;#34;cantarell&amp;#34; , &amp;#34;noto sans&amp;#34; , sans-serif , , &amp;#34;helvetica neue&amp;#34; , &amp;#34;pingfang sc&amp;#34; , &amp;#34;hiragino sans gb&amp;#34; , &amp;#34;microsoft yahei&amp;#34; , &amp;#34;arial&amp;#34; ; font-size: 15px ; background-color: rgb(255 , 255 , 255)&quot;&gt;execStartActivity&lt;/span&gt;" style="text;html=1;align=center;verticalAlign=middle;resizable=0;points=[];autosize=1;" vertex="1" parent="1">
          <mxGeometry x="1090" y="242.5" width="130" height="20" as="geometry" />
        </mxCell>
        <mxCell id="jeZK_QSbLYXmpiHGlzoK-14" value="&lt;span style=&quot;color: rgb(51 , 51 , 51) ; font-family: , , &amp;#34;segoe ui&amp;#34; , &amp;#34;roboto&amp;#34; , &amp;#34;ubuntu&amp;#34; , &amp;#34;cantarell&amp;#34; , &amp;#34;noto sans&amp;#34; , sans-serif , , &amp;#34;helvetica neue&amp;#34; , &amp;#34;pingfang sc&amp;#34; , &amp;#34;hiragino sans gb&amp;#34; , &amp;#34;microsoft yahei&amp;#34; , &amp;#34;arial&amp;#34; ; font-size: 15px ; background-color: rgb(255 , 255 , 255)&quot;&gt;Instrumentation&lt;/span&gt;" style="shape=umlLifeline;perimeter=lifelinePerimeter;whiteSpace=wrap;html=1;container=1;collapsible=0;recursiveResize=0;outlineConnect=0;rounded=0;sketch=0;" vertex="1" parent="1">
          <mxGeometry x="1200" y="70" width="120" height="400" as="geometry" />
        </mxCell>
        <mxCell id="jeZK_QSbLYXmpiHGlzoK-15" value="" style="html=1;points=[];perimeter=orthogonalPerimeter;" vertex="1" parent="1">
          <mxGeometry x="1260" y="262.5" width="10" height="50" as="geometry" />
        </mxCell>
      </root>
    </mxGraphModel>
  </diagram>
</mxfile>
